<?xml version="1.0" encoding="utf-8"?>
<!-- Generator: Adobe Illustrator 19.2.1, SVG Export Plug-In . SVG Version: 6.00 Build 0)  -->
<svg version="1.1" id="layer" xmlns="http://www.w3.org/2000/svg" xmlns:xlink="http://www.w3.org/1999/xlink" x="0px" y="0px"
	 viewBox="0 0 1400 980" style="enable-background:new 0 0 1400 980;" xml:space="preserve">
<style type="text/css">
	.st0{fill:#B57FB8;}
	.st1{fill:none;stroke:#FFFFFF;stroke-width:4;stroke-miterlimit:10;}
	.st2{fill:none;stroke:#FFFFFF;stroke-width:4;stroke-miterlimit:10;stroke-dasharray:31.7533,31.7533;}
	.st3{fill:#FFFFFF;}
	.st4{fill:#F15841;}
	.st5{fill:#562A5D;}
	.st6{fill:#FEBF43;}
	.st7{fill:none;stroke:#F15841;stroke-width:4;stroke-miterlimit:10;stroke-dasharray:11.8822,11.8822;}
	.st8{fill:none;stroke:#FFFFFF;stroke-width:4;stroke-miterlimit:10;stroke-dasharray:12;}
	.st9{fill:none;stroke:#562A5D;stroke-width:4;stroke-miterlimit:10;}
</style>
<polygon class="st0" points="0,0 0,749.2 0,752.8 0,805.6 0,980 1400,980 1400,805.6 1400,752.8 1400,749.2 1400,0 "/>
<g>
	<g>
		<path class="st1" d="M415.5,489.6c15.7-59.6,46.9-116,93.7-162.8c51.4-51.4,114.4-84,180.7-97.9"/>
	</g>
	<g>
		<path class="st1" d="M995.1,859.5c-17.7,14.8-36.5,27.6-56.2,38.4c-137.2,75.9-313.3,55.7-429.7-60.7
			c-74.7-74.7-109.8-174-105.3-271.8"/>
	</g>
	<g>
		<path class="st1" d="M887.5,242.7c48.2,17.4,93.4,45.5,132,84.1c129.8,129.8,140.1,333.8,30.8,475.3"/>
	</g>
</g>
<g>
	<g>
		<path class="st2" d="M1059.3,579.1c0,161.9-131.2,293.1-293.1,293.1c-161.9,0-293.1-131.2-293.1-293.1
			c0-161.8,131.2-293.1,293.1-293.1C928.1,286,1059.3,417.2,1059.3,579.1z"/>
	</g>
</g>
<g>
	<g>
		<g>
			<path class="st3" d="M270.1,169.8v5.7v48.3v9.7c0,22.9-18.2,41.4-40.6,41.4h204.4c22.4,0,40.6-18.6,40.6-41.4v-9.7v-48.3v-5.7"/>
		</g>
	</g>
	<g>
		<path class="st4" d="M291.3,274.9c-22.4,0-40.6-18.5-40.6-41.4v-9.7l0.2-83.9v-9.7c0-22.9-18.2-41.4-40.6-41.4H347
			c22.4,0,40.6,18.6,40.6,41.4v9.7l-0.2,83.9v9.7c0,22.9,18.2,41.4,40.6,41.4H291.3z"/>
	</g>
	<g>
		<path class="st3" d="M311.5,454.3v-266v-48.3v-9.7c0-22.9,18.2-41.4,40.6-41.4H147.6c-22.4,0-40.6,18.6-40.6,41.4v9.7v48.3v266
			H311.5z"/>
	</g>
	<g>
		<g>
			<path class="st5" d="M276.3,141.1H143.7c-2.7,0-4.9-2.2-4.9-4.9c0-2.7,2.2-4.9,4.9-4.9h132.6c2.7,0,4.9,2.2,4.9,4.9
				C281.2,138.9,279,141.1,276.3,141.1z"/>
		</g>
		<g>
			<path class="st5" d="M194.9,165.2h-51.1c-2.7,0-4.9-2.2-4.9-4.9s2.2-4.9,4.9-4.9h51.1c2.7,0,4.9,2.2,4.9,4.9
				S197.5,165.2,194.9,165.2z"/>
		</g>
		<g>
			<path class="st5" d="M234.9,189.4h-91.2c-2.7,0-4.9-2.2-4.9-4.9c0-2.7,2.2-4.9,4.9-4.9h91.2c2.7,0,4.9,2.2,4.9,4.9
				C239.8,187.2,237.6,189.4,234.9,189.4z"/>
		</g>
	</g>
	<g>
		<g>
			<path class="st5" d="M247.3,221.2H143.7c-2.7,0-4.9-2.2-4.9-4.9c0-2.7,2.2-4.9,4.9-4.9h103.6c2.7,0,4.9,2.2,4.9,4.9
				C252.2,219,250,221.2,247.3,221.2z"/>
		</g>
		<g>
			<path class="st5" d="M183.7,245.3h-39.9c-2.7,0-4.9-2.2-4.9-4.9c0-2.7,2.2-4.9,4.9-4.9h39.9c2.7,0,4.9,2.2,4.9,4.9
				C188.5,243.2,186.3,245.3,183.7,245.3z"/>
		</g>
		<g>
			<path class="st5" d="M215,269.5h-71.2c-2.7,0-4.9-2.2-4.9-4.9s2.2-4.9,4.9-4.9H215c2.7,0,4.9,2.2,4.9,4.9S217.6,269.5,215,269.5z
				"/>
		</g>
	</g>
	<g>
		<g>
			<path class="st5" d="M247.3,385.4H143.7c-2.7,0-4.9-2.2-4.9-4.9c0-2.7,2.2-4.9,4.9-4.9h103.6c2.7,0,4.9,2.2,4.9,4.9
				C252.2,383.3,250,385.4,247.3,385.4z"/>
		</g>
		<g>
			<path class="st5" d="M183.7,361.2h-39.9c-2.7,0-4.9-2.2-4.9-4.9c0-2.7,2.2-4.9,4.9-4.9h39.9c2.7,0,4.9,2.2,4.9,4.9
				C188.5,359.1,186.4,361.2,183.7,361.2z"/>
		</g>
		<g>
			<path class="st5" d="M214.9,337h-71.2c-2.7,0-4.9-2.2-4.9-4.9s2.2-4.9,4.9-4.9h71.2c2.7,0,4.9,2.2,4.9,4.9S217.6,337,214.9,337z"
				/>
		</g>
	</g>
</g>
<g>
	<g>
		<path class="st6" d="M741.8,140.9c-11.7,53.8-64.8,87.9-118.5,76.3c-23.6-5.1-43.5-18.3-57.3-36l-26.7-1.7l12.8-22.4
			c-7.3-17.9-9.4-38.2-5-58.6c11.7-53.8,64.8-87.9,118.5-76.3C719.3,34,753.5,87.1,741.8,140.9z"/>
	</g>
	<g>
		<circle class="st3" cx="644.4" cy="118.8" r="68"/>
		<path class="st4" d="M644.4,191.1c-39.9,0-72.3-32.4-72.3-72.3c0-39.9,32.4-72.3,72.3-72.3c39.9,0,72.3,32.4,72.3,72.3
			C716.7,158.7,684.2,191.1,644.4,191.1z M644.4,55c-35.2,0-63.8,28.6-63.8,63.8s28.6,63.8,63.8,63.8s63.8-28.6,63.8-63.8
			S679.6,55,644.4,55z"/>
	</g>
	<g>
		<g>
			<circle class="st3" cx="631.9" cy="99.6" r="12.5"/>
			<path class="st4" d="M631.3,121.9c-8.5,3.5-18.3-0.7-21.8-9.2s0.7-18.3,9.2-21.8c8.5-3.5,18.3,0.7,21.8,9.2
				C644,108.7,639.8,118.4,631.3,121.9z M621.9,98.8c-4.2,1.7-6.2,6.5-4.5,10.7c1.7,4.2,6.5,6.2,10.7,4.5c4.2-1.7,6.2-6.5,4.5-10.7
				C630.9,99.1,626.1,97.1,621.9,98.8z"/>
		</g>
		<g>
			<circle class="st3" cx="660.7" cy="141.8" r="12.5"/>
			<path class="st4" d="M673.8,150.2c-8.5,3.5-18.3-0.7-21.8-9.2c-3.5-8.5,0.7-18.3,9.2-21.8s18.3,0.7,21.8,9.2
				C686.5,137,682.3,146.7,673.8,150.2z M664.4,127.1c-4.2,1.7-6.2,6.5-4.5,10.7c1.7,4.2,6.5,6.2,10.7,4.5c4.2-1.7,6.2-6.5,4.5-10.7
				C673.4,127.4,668.6,125.4,664.4,127.1z"/>
		</g>
		<path class="st4" d="M632.2,159.8c-1,0.4-2.2,0.4-3.2,0c-2.2-0.9-3.2-3.4-2.3-5.6l29.1-68.6c0.9-2.2,3.4-3.2,5.6-2.3
			c2.2,0.9,3.2,3.4,2.3,5.6l-29.1,68.6C634,158.6,633.2,159.4,632.2,159.8z"/>
	</g>
</g>
<g>
	<g>
		<path class="st3" d="M1003.6,71.4c20.3,33.2,15.2,74.8-10,102.1l29.5,26.7c0,0-96.1,0.4-94.8,0.6c-27.6-0.9-54.1-15.3-69.6-40.5
			c-24.5-40-12-92.3,28-116.9C926.8,18.8,979.1,31.4,1003.6,71.4z"/>
	</g>
	<g>
		<rect x="877.6" y="76" class="st5" width="108.8" height="13.6"/>
	</g>
	<g>
		<rect x="877.6" y="106.4" class="st5" width="108.8" height="13.6"/>
	</g>
	<g>
		<rect x="877.6" y="136.9" class="st5" width="39.8" height="13.6"/>
	</g>
</g>
<g>
	<g>
		<rect x="64.8" y="552" class="st5" width="309.9" height="318.9"/>
	</g>
	<polygon class="st5" points="173.3,534.4 93.6,534.4 84.8,553.8 173.3,553.8 	"/>
	<polygon class="st5" points="266.2,534.4 186.4,534.4 177.7,553.8 266.2,553.8 	"/>
	<polygon class="st5" points="359,534.4 279.3,534.4 270.6,553.8 359,553.8 	"/>
	<g>
		<rect x="64.8" y="589.4" class="st3" width="309.9" height="258.1"/>
	</g>
	<g>
		<rect x="76.8" y="605.3" class="st6" width="121.3" height="226.3"/>
		<rect x="211.6" y="605.3" class="st6" width="151.3" height="226.3"/>
	</g>
	<g>
		<g>
			<rect x="234.1" y="623.2" class="st5" width="106.1" height="75.4"/>
			<rect x="234.1" y="747.5" class="st5" width="106.1" height="58.2"/>
		</g>
	</g>
	<g>
		<g>
			<rect x="97.4" y="644.7" class="st4" width="83" height="14.3"/>
		</g>
		<g>
			<rect x="97.4" y="688.8" class="st4" width="83" height="14.3"/>
		</g>
		<g>
			<rect x="97.4" y="733" class="st4" width="83" height="14.3"/>
		</g>
		<g>
			<rect x="97.4" y="777.1" class="st4" width="83" height="14.3"/>
		</g>
	</g>
</g>
<g>
	<g>
		<path class="st3" d="M1323.4,179.7c0,61.2-49.6,110.9-110.8,110.9c-61.2,0-110.9-49.6-110.9-110.9c0-61.2,49.7-110.8,110.9-110.8
			C1273.7,68.8,1323.4,118.5,1323.4,179.7z"/>
	</g>
	<g>
		<path class="st6" d="M1323.4,179.7c0,61.2-49.6,110.9-110.8,110.9c-61.2,0-110.9-49.6-110.9-110.9c0-61.2,49.7-110.8,110.9-110.8
			C1273.7,68.8,1323.4,118.5,1323.4,179.7z"/>
	</g>
	<g>
		<g>
			<path class="st3" d="M1299.5,179.7c0,48-38.9,87-87,87c-48,0-87-39-87-87c0-48,38.9-87,87-87
				C1260.6,92.7,1299.5,131.6,1299.5,179.7z"/>
			<path class="st7" d="M1299.5,179.7c0,48-38.9,87-87,87c-48,0-87-39-87-87c0-48,38.9-87,87-87
				C1260.6,92.7,1299.5,131.6,1299.5,179.7z"/>
		</g>
	</g>
	<g>
		<path class="st4" d="M1207.5,230.6c-14.4-2-26.4-13.3-26.4-28.8v-1.9h10.9c-0.1,12.6,8.4,21.4,20.7,21.4
			c12.5,0,20.2-9.5,20.2-20.3c0-15.7-13-19.7-20.9-22.1c-11.5-3.4-27.2-9.3-27.2-29.1c0-14.3,9.6-25.1,22.8-27.1v-12.9h10.1v12.9
			c14.7,1.6,24.6,13.7,25.1,28.2h-10.9c0-11.5-8-18.9-18.7-18.9c-10.5,0-17.4,7.4-17.4,18.6c0,12.6,9.8,15.8,18.6,18.3
			c11.5,3.2,29.5,10,29.5,31.9c0,16.9-12.7,27.9-26.2,29.8v12.9h-10.1V230.6z"/>
	</g>
</g>
<g>
	<polygon class="st3" points="1335.4,469.1 1178.8,447.1 1213.2,360.1 	"/>
	<polygon class="st6" points="1213.2,360.1 1251.2,457.3 1250.9,493.5 1277,460.9 	"/>
	<polygon class="st4" points="1240.2,455.7 1250.9,493.5 1251.2,457.3 	"/>
</g>
<path class="st8" d="M504.3,884.7c-43.1,19.6-85.4,41.1-132,38.9c-21.7-1-47.9-13.4-46.8-35.2"/>
<path class="st8" d="M1263.7,513c23.4,19.5,30.5,52.6,29.6,83c-1.1,38.4-13,76.6-34.5,108.4c-11.9,17.5-28.5,34.1-49.6,36.5
	s-44.5-16.6-39.3-37.1c4.2-16.5,23.7-24.8,40.7-23.7c35.7,2.4,64.9,39.5,59,74.7c-5.8,34.4-37.6,57.7-68.2,74.5
	c-44.6,24.6-92.6,43.8-142.7,53.1c-14.7,2.7-29.5,4.6-44.3,5.8"/>
<g>
	<g>
		<g>
			<path class="st5" d="M1024.3,412.1H503.1v325.7h216.3l0,0c0,10.9,8.8,19.8,19.8,19.8h49.2c10.9,0,19.8-8.8,19.8-19.8l0,0h216.3
				V412.1z"/>
		</g>
		<g>
			<path class="st4" d="M773.7,414c-6.8,0-12.3,5.1-12.3,11.4c0-6.3-5.4-11.4-12-11.4H541.2v305h208.2c6.6,0,12,17.7,12,11.4
				c0,6.3,5.5-11.4,12.3-11.4h213.6V414H773.7z"/>
			<path class="st3" d="M773.7,400.7c-6.8,0-12.3,5.1-12.3,11.4c0-6.3-5.4-11.4-12-11.4H541.2v305h208.2c6.6,0,12,17.7,12,11.4
				c0,6.3,5.5-11.4,12.3-11.4h213.6v-305H773.7z"/>
			<path class="st6" d="M783.7,534.5h179V432.7h-179V534.5z"/>
			<g>
				<rect x="558.6" y="614.9" class="st4" width="141.6" height="11.4"/>
			</g>
			<g>
				<rect x="558.6" y="447" class="st5" width="188.4" height="19.1"/>
				<rect x="558.6" y="517.5" class="st4" width="188.4" height="11.4"/>
				<rect x="558.6" y="542.3" class="st4" width="188.4" height="11.4"/>
				<rect x="558.6" y="567.2" class="st4" width="188.4" height="11.4"/>
				<rect x="558.6" y="592" class="st4" width="188.4" height="11.4"/>
				<g>
					<rect x="783.7" y="644.5" class="st4" width="134.6" height="11.4"/>
				</g>
				<rect x="783.7" y="596.8" class="st4" width="179" height="11.4"/>
				<rect x="783.7" y="553.9" class="st5" width="179" height="19"/>
				<rect x="783.7" y="621.6" class="st4" width="179" height="11.4"/>
			</g>
		</g>
	</g>
</g>
<g>
	<polygon class="st3" points="626.7,386.2 802.2,386.2 851.8,448.9 850.1,386.2 901.9,386.2 901.9,247.4 626.7,247.4 	"/>
	<rect x="764.3" y="272.4" class="st4" width="108.8" height="15.9"/>
	<rect x="764.3" y="307.9" class="st4" width="108.8" height="15.9"/>
	<rect x="764.3" y="343.4" class="st4" width="62.3" height="15.9"/>
</g>
<rect x="650.8" y="272.4" class="st6" width="98.7" height="86.8"/>
<g>
	<path class="st6" d="M1204.4,785.6c0.9,0,1.8,0.3,2.5,0.8l48.1,31.6c1.3,0.8,2.1,2.3,2.1,3.8s-0.8,3-2.1,3.8l-48.1,31.6
		c-1.4,0.9-3.2,1-4.7,0.2c-1.5-0.8-2.4-2.4-2.4-4v-14.6h-64.3c-2.5,0-4.6-2.1-4.6-4.6v-24.8c0-2.5,2.1-4.6,4.6-4.6h64.3l0-13.7
		c-0.1-0.3-0.1-0.6-0.1-0.9C1199.7,787.6,1201.8,785.6,1204.4,785.6C1204.3,785.6,1204.4,785.6,1204.4,785.6z"/>
	<path class="st5" d="M1280.7,846.8c1.2,0,2.4,0.3,3.5,1l66.7,43.8c1.8,1.2,2.9,3.2,2.9,5.3c0,2.1-1.1,4.1-2.9,5.3l-66.7,43.8
		c-2,1.3-4.5,1.4-6.5,0.3c-2.1-1.1-3.3-3.3-3.3-5.6v-20.2h-89.1c-3.5,0-6.4-2.8-6.4-6.4v-34.4c0-3.5,2.8-6.4,6.4-6.4h89.2l0-19
		c-0.1-0.4-0.1-0.8-0.1-1.3c0-3.5,2.8-6.4,6.4-6.4C1280.6,846.8,1280.6,846.8,1280.7,846.8z"/>
</g>
<g>
	<line class="st9" x1="91.6" y1="34.5" x2="183.3" y2="34.5"/>
	<line class="st9" x1="28.5" y1="80" x2="91.6" y2="80"/>
	<line class="st9" x1="414.9" y1="34.5" x2="513.8" y2="34.5"/>
	<line class="st9" x1="450" y1="80" x2="513.8" y2="80"/>
	<line class="st9" x1="352" y1="63" x2="403.5" y2="63"/>
	<line class="st9" x1="450" y1="123.1" x2="503.1" y2="123.1"/>
	<line class="st9" x1="513.8" y1="242.7" x2="552.7" y2="242.7"/>
	<line class="st9" x1="352" y1="329.3" x2="403.5" y2="329.3"/>
	<line class="st9" x1="340.2" y1="377.1" x2="377.8" y2="377.1"/>
	<line class="st9" x1="414.9" y1="360.1" x2="464.3" y2="360.1"/>
	<line class="st9" x1="287.2" y1="485.4" x2="386.3" y2="485.4"/>
	<line class="st9" x1="219.8" y1="518.7" x2="302" y2="518.7"/>
	<line class="st9" x1="107" y1="495.2" x2="153.9" y2="495.2"/>
	<line class="st9" x1="76.8" y1="524.3" x2="97.4" y2="524.3"/>
	<line class="st9" x1="425.6" y1="840.1" x2="474.5" y2="840.1"/>
	<line class="st9" x1="47.2" y1="921" x2="107" y2="921"/>
	<line class="st9" x1="107" y1="947.1" x2="138.9" y2="947.1"/>
	<line class="st9" x1="219.8" y1="906.7" x2="287.2" y2="906.7"/>
	<line class="st9" x1="287.2" y1="947.1" x2="336.7" y2="947.1"/>
	<line class="st9" x1="513.8" y1="921" x2="558.6" y2="921"/>
	<line class="st9" x1="533.2" y1="961.3" x2="572.1" y2="961.3"/>
	<line class="st9" x1="986.4" y1="923.8" x2="1059.3" y2="923.8"/>
	<line class="st9" x1="986.4" y1="961.3" x2="1034" y2="961.3"/>
	<line class="st9" x1="1101.7" y1="961.3" x2="1125.5" y2="961.3"/>
	<line class="st9" x1="648.2" y1="782.6" x2="712.4" y2="782.6"/>
	<line class="st9" x1="684.2" y1="816.8" x2="795.4" y2="816.8"/>
	<line class="st9" x1="795.4" y1="784.2" x2="851" y2="784.2"/>
	<line class="st9" x1="873.1" y1="813.2" x2="887.5" y2="813.2"/>
	<line class="st9" x1="826.6" y1="904.3" x2="873.2" y2="904.3"/>
	<line class="st9" x1="1163.6" y1="534.5" x2="1245.7" y2="534.5"/>
	<line class="st9" x1="1204.7" y1="572.9" x2="1245.7" y2="572.9"/>
	<line class="st9" x1="1323.4" y1="543" x2="1353.8" y2="543"/>
	<line class="st9" x1="1293.3" y1="711.5" x2="1373.3" y2="711.5"/>
	<line class="st9" x1="1323.4" y1="764.2" x2="1363.1" y2="764.2"/>
	<line class="st9" x1="1323.4" y1="616.6" x2="1363.1" y2="616.6"/>
	<line class="st9" x1="1277" y1="301.3" x2="1363.1" y2="301.3"/>
	<line class="st9" x1="1245.7" y1="337" x2="1299.5" y2="337"/>
	<line class="st9" x1="1320" y1="377.1" x2="1363.1" y2="377.1"/>
	<line class="st9" x1="1042.3" y1="306.9" x2="1130.9" y2="306.9"/>
	<line class="st9" x1="1113.6" y1="346.7" x2="1178.8" y2="346.7"/>
	<line class="st9" x1="784.7" y1="46.5" x2="826.9" y2="46.5"/>
	<line class="st9" x1="783.7" y1="95.6" x2="823.2" y2="95.6"/>
	<line class="st9" x1="749.5" y1="192.6" x2="826.9" y2="192.6"/>
	<line class="st9" x1="1059.3" y1="44.3" x2="1163.6" y2="44.3"/>
	<line class="st9" x1="1042.3" y1="89.7" x2="1086.6" y2="89.7"/>
	<line class="st9" x1="1006.4" y1="259.8" x2="1073.1" y2="259.8"/>
	<line class="st9" x1="1320" y1="46.5" x2="1383.6" y2="46.5"/>
	<line class="st9" x1="1335.4" y1="83" x2="1363.1" y2="83"/>
</g>
</svg>
