<svg id="Objects" xmlns="http://www.w3.org/2000/svg" xmlns:xlink="http://www.w3.org/1999/xlink" viewBox="0 0 335.99 235.19"><defs><style>.cls-1{mask:url(#mask);filter:url(#luminosity-noclip-2);}.cls-2{mix-blend-mode:multiply;fill:url(#linear-gradient);}.cls-3{fill:#d1d3d4;}.cls-4{fill:#fff;}.cls-5{fill:#4f4341;}.cls-6{fill:#97e6e4;}.cls-7{fill:#f1f2f2;}.cls-8{mask:url(#mask-2);}.cls-9{fill:#55d7d4;}.cls-10{filter:url(#luminosity-noclip);}</style><filter id="luminosity-noclip" x="82.08" y="-8310" width="127.22" height="32766" filterUnits="userSpaceOnUse" color-interpolation-filters="sRGB"><feFlood flood-color="#fff" result="bg"/><feBlend in="SourceGraphic" in2="bg"/></filter><mask id="mask" x="82.08" y="-8310" width="127.22" height="32766" maskUnits="userSpaceOnUse"><g class="cls-10"/></mask><linearGradient id="linear-gradient" x1="145.69" y1="117.01" x2="145.69" y2="43.29" gradientUnits="userSpaceOnUse"><stop offset="0.1"/><stop offset="1" stop-color="#fff"/></linearGradient><filter id="luminosity-noclip-2" x="80.99" y="42.78" width="129.4" height="75.91" filterUnits="userSpaceOnUse" color-interpolation-filters="sRGB"><feFlood flood-color="#fff" result="bg"/><feBlend in="SourceGraphic" in2="bg"/></filter><mask id="mask-2" x="80.99" y="42.78" width="129.4" height="75.91" maskUnits="userSpaceOnUse"><g class="cls-1"><rect class="cls-2" x="82.08" y="43.29" width="127.22" height="73.73"/></g></mask></defs><title>D_38</title><g id="background"><rect class="cls-3" width="335.99" height="235.19"/></g><g id="computer"><path class="cls-4" d="M275.23,152.27V34.58a7.44,7.44,0,0,0-7.43-7.43H74.47A7.44,7.44,0,0,0,67,34.58V152.27H275.23Z"/><path class="cls-5" d="M275.23,152.78H67a0.51,0.51,0,0,1-.51-0.51V34.58a8,8,0,0,1,7.94-7.94H267.8a8,8,0,0,1,7.94,7.94V152.27A0.51,0.51,0,0,1,275.23,152.78Zm-207.67-1H274.71V34.58a6.93,6.93,0,0,0-6.92-6.92H74.47a6.92,6.92,0,0,0-6.91,6.92V151.76Z"/><path class="cls-4" d="M267.92,180.16H75.76c-4.22,0-8.53-4.45-8.53-8.82V152.27H275v19.36C275,175.83,272.38,180.16,267.92,180.16Z"/><path class="cls-5" d="M267.92,180.68H75.76c-4.48,0-9-4.71-9-9.33V152.27a0.51,0.51,0,0,1,.51-0.51H275a0.51,0.51,0,0,1,.51.51v19.36C275.55,176.08,272.7,180.68,267.92,180.68ZM67.74,152.78v18.57c0,4.11,4,8.3,8,8.3H267.92c4.14,0,6.61-4.08,6.61-8V152.78H67.74Z"/><path class="cls-6" d="M267.92,180.16H75.76c-4.22,0-8.53-4.45-8.53-8.82V152.27H275v19.36C275,175.83,272.38,180.16,267.92,180.16Z"/><path class="cls-5" d="M267.92,180.68H75.76c-4.48,0-9-4.71-9-9.33V152.27a0.51,0.51,0,0,1,.51-0.51H275a0.51,0.51,0,0,1,.51.51v19.36C275.55,176.08,272.7,180.68,267.92,180.68ZM67.74,152.78v18.57c0,4.11,4,8.3,8,8.3H267.92c4.14,0,6.61-4.08,6.61-8V152.78H67.74Z"/><path class="cls-4" d="M265.63,146.17h-189V36.9h189V146.17Z"/><path class="cls-5" d="M265.63,146.68h-189a0.51,0.51,0,0,1-.51-0.51V36.9a0.51,0.51,0,0,1,.51-0.51h189a0.51,0.51,0,0,1,.51.51V146.17A0.51,0.51,0,0,1,265.63,146.68Zm-188.47-1h188V37.41h-188V145.66Z"/><path class="cls-7" d="M194.38,197c-0.83-4.19-.3-12.12-0.44-16.8H148.41c-0.12,4.75.39,12.68-.43,16.8s-1.44,4.41-3.7,5.67c-1.27.7-3.43,1.68-5.24,2.46l64.21,0c-1.82-.79-4-1.78-5.3-2.49C195.68,201.38,195.23,201.23,194.38,197Z"/><path class="cls-5" d="M203.24,205.64h0l-64.21,0a0.51,0.51,0,0,1-.2-1c1.33-.57,3.78-1.65,5.2-2.44l0.3-.16c1.93-1.06,2.39-1.32,3.15-5.16,0.55-2.78.49-7.43,0.43-11.53,0-1.9,0-3.7,0-5.19a0.51,0.51,0,0,1,.51-0.5h45.54a0.51,0.51,0,0,1,.51.5c0,1.52,0,3.37,0,5.33-0.05,4-.12,8.6.44,11.39,0.78,3.92,1.09,4.1,3.12,5.22l0.17,0.1c1.33,0.73,3.59,1.74,5.26,2.47A0.51,0.51,0,0,1,203.24,205.64Zm-61.79-1.05,59.38,0c-1.16-.53-2.31-1.08-3.14-1.53l-0.18-.1c-2.28-1.26-2.79-1.68-3.63-5.92-0.57-2.89-.51-7.52-0.46-11.6,0-1.74,0-3.39,0-4.79H148.91c0,1.37,0,3,0,4.65,0.06,4.15.12,8.85-.45,11.74-0.82,4.14-1.44,4.63-3.66,5.85l-0.3.16C143.69,203.54,142.54,204.09,141.45,204.58Z"/><rect class="cls-4" x="219.32" y="43.27" width="37.12" height="30.22"/><path class="cls-5" d="M256.43,74H219.32a0.51,0.51,0,0,1-.51-0.51V43.27a0.51,0.51,0,0,1,.51-0.51h37.12a0.51,0.51,0,0,1,.51.51V73.48A0.51,0.51,0,0,1,256.43,74Zm-36.61-1h36.09V43.78H219.83V73Z"/><rect class="cls-4" x="219.32" y="77.44" width="37.12" height="6.8"/><path class="cls-5" d="M256.43,84.76H219.32a0.51,0.51,0,0,1-.51-0.51v-6.8a0.51,0.51,0,0,1,.51-0.51h37.12a0.51,0.51,0,0,1,.51.51v6.8A0.51,0.51,0,0,1,256.43,84.76Zm-36.61-1h36.09V78H219.83v5.78Z"/><rect class="cls-4" x="219.32" y="88.48" width="15.32" height="6.8"/><path class="cls-5" d="M234.64,95.79H219.32a0.51,0.51,0,0,1-.51-0.51v-6.8a0.51,0.51,0,0,1,.51-0.51h15.32a0.51,0.51,0,0,1,.51.51v6.8A0.51,0.51,0,0,1,234.64,95.79Zm-14.81-1h14.3V89h-14.3v5.78Z"/><rect class="cls-4" x="241.11" y="88.48" width="15.32" height="6.8"/><path class="cls-5" d="M256.43,95.79H241.11a0.51,0.51,0,0,1-.51-0.51v-6.8a0.51,0.51,0,0,1,.51-0.51h15.32a0.51,0.51,0,0,1,.51.51v6.8A0.51,0.51,0,0,1,256.43,95.79Zm-14.81-1h14.3V89h-14.3v5.78Z"/><path class="cls-5" d="M257.21,99.59H219.36a0.51,0.51,0,1,1,0-1h37.84A0.51,0.51,0,1,1,257.21,99.59Z"/><path class="cls-5" d="M257.21,102.92H219.36a0.51,0.51,0,1,1,0-1h37.84A0.51,0.51,0,1,1,257.21,102.92Z"/><path class="cls-5" d="M257.21,106.24H219.36a0.51,0.51,0,1,1,0-1h37.84A0.51,0.51,0,1,1,257.21,106.24Z"/><path class="cls-5" d="M209.39,129H142.65a0.51,0.51,0,0,1,0-1h66.74A0.51,0.51,0,1,1,209.39,129Z"/><path class="cls-5" d="M209.39,132.07H142.65a0.51,0.51,0,0,1,0-1h66.74A0.51,0.51,0,1,1,209.39,132.07Z"/><path class="cls-5" d="M209.39,135.14H142.65a0.51,0.51,0,0,1,0-1h66.74A0.51,0.51,0,1,1,209.39,135.14Z"/><polygon class="cls-4" points="256.56 135.35 220.2 135.35 220.2 119.01 226.66 119.01 226.66 111.36 235.12 119.01 256.56 119.01 256.56 135.35"/><path class="cls-5" d="M256.56,135.86H220.2a0.51,0.51,0,0,1-.51-0.51V119a0.51,0.51,0,0,1,.51-0.51h6v-7.14A0.51,0.51,0,0,1,227,111l8.31,7.52h21.24a0.51,0.51,0,0,1,.51.51v16.34A0.51,0.51,0,0,1,256.56,135.86Zm-35.85-1H256V119.52H235.12a0.51,0.51,0,0,1-.34-0.13l-7.6-6.88V119a0.51,0.51,0,0,1-.51.51h-6v15.32Z"/><rect class="cls-3" x="226.39" y="125.88" width="24.87" height="3.1"/><path class="cls-5" d="M251.25,129.49H226.39a0.51,0.51,0,0,1-.51-0.51v-3.1a0.51,0.51,0,0,1,.51-0.51h24.87a0.51,0.51,0,0,1,.51.51V129A0.51,0.51,0,0,1,251.25,129.49Zm-24.35-1h23.84v-2.08H226.9v2.08Z"/><g class="cls-8"><rect class="cls-7" x="81.5" y="43.29" width="128.38" height="74.89"/><path class="cls-5" d="M209.88,118.68H81.5a0.51,0.51,0,0,1-.51-0.51V43.29a0.51,0.51,0,0,1,.51-0.51H209.88a0.51,0.51,0,0,1,.51.51v74.89A0.51,0.51,0,0,1,209.88,118.68ZM82,117.66H209.37V43.8H82v73.86Z"/></g><rect class="cls-6" x="87.63" y="57.55" width="72.95" height="46.14"/><path class="cls-5" d="M160.58,104.2H87.63a0.51,0.51,0,0,1-.51-0.51V57.55A0.51,0.51,0,0,1,87.63,57h72.95a0.51,0.51,0,0,1,.51.51v46.14A0.51,0.51,0,0,1,160.58,104.2Zm-72.44-1h71.93V58.06H88.14v45.11Z"/><rect class="cls-3" x="165.5" y="57.55" width="16.28" height="12.2"/><path class="cls-5" d="M181.78,70.26H165.5a0.51,0.51,0,0,1-.51-0.51V57.55A0.51,0.51,0,0,1,165.5,57h16.28a0.51,0.51,0,0,1,.51.51v12.2A0.51,0.51,0,0,1,181.78,70.26Zm-15.77-1h15.26V58.06H166V69.24Z"/><rect class="cls-4" x="87.72" y="48.81" width="116.13" height="3.09"/><path class="cls-5" d="M203.85,52.41H87.72a0.51,0.51,0,0,1-.51-0.51V48.81a0.51,0.51,0,0,1,.51-0.51H203.85a0.51,0.51,0,0,1,.51.51V51.9A0.51,0.51,0,0,1,203.85,52.41Zm-115.62-1H203.34V49.32H88.23v2.07Z"/><rect class="cls-4" x="87.72" y="109.16" width="116.13" height="3.09"/><path class="cls-5" d="M203.85,112.76H87.72a0.51,0.51,0,0,1-.51-0.51v-3.09a0.51,0.51,0,0,1,.51-0.51H203.85a0.51,0.51,0,0,1,.51.51v3.09A0.51,0.51,0,0,1,203.85,112.76Zm-115.62-1H203.34v-2.07H88.23v2.07Z"/><rect class="cls-4" x="185.18" y="59.25" width="18.59" height="3.09"/><path class="cls-5" d="M203.77,62.84H185.18a0.51,0.51,0,0,1-.51-0.51V59.25a0.51,0.51,0,0,1,.51-0.51h18.59a0.51,0.51,0,0,1,.51.51v3.09A0.51,0.51,0,0,1,203.77,62.84Zm-18.08-1h17.56V59.76H185.69v2.07Z"/><rect class="cls-4" x="185.18" y="64.65" width="18.59" height="3.09"/><path class="cls-5" d="M203.77,68.25H185.18a0.51,0.51,0,0,1-.51-0.51V64.65a0.51,0.51,0,0,1,.51-0.51h18.59a0.51,0.51,0,0,1,.51.51v3.09A0.51,0.51,0,0,1,203.77,68.25Zm-18.08-1h17.56V65.16H185.69v2.07Z"/><rect class="cls-4" x="185.18" y="76.63" width="18.59" height="3.09"/><path class="cls-5" d="M203.77,80.23H185.18a0.51,0.51,0,0,1-.51-0.51V76.63a0.51,0.51,0,0,1,.51-0.51h18.59a0.51,0.51,0,0,1,.51.51v3.09A0.51,0.51,0,0,1,203.77,80.23Zm-18.08-1h17.56V77.14H185.69v2.07Z"/><rect class="cls-4" x="185.18" y="82.04" width="18.59" height="3.09"/><path class="cls-5" d="M203.77,85.64H185.18a0.51,0.51,0,0,1-.51-0.51V82a0.51,0.51,0,0,1,.51-0.51h18.59a0.51,0.51,0,0,1,.51.51v3.09A0.51,0.51,0,0,1,203.77,85.64Zm-18.08-1h17.56V82.55H185.69v2.07Z"/><rect class="cls-4" x="185.18" y="93.44" width="18.59" height="3.09"/><path class="cls-5" d="M203.77,97H185.18a0.51,0.51,0,0,1-.51-0.51V93.44a0.51,0.51,0,0,1,.51-0.51h18.59a0.51,0.51,0,0,1,.51.51v3.09A0.51,0.51,0,0,1,203.77,97Zm-18.08-1h17.56V94H185.69V96Z"/><rect class="cls-4" x="185.18" y="98.85" width="18.59" height="3.09"/><path class="cls-5" d="M203.77,102.44H185.18a0.51,0.51,0,0,1-.51-0.51V98.85a0.51,0.51,0,0,1,.51-0.51h18.59a0.51,0.51,0,0,1,.51.51v3.09A0.51,0.51,0,0,1,203.77,102.44Zm-18.08-1h17.56V99.36H185.69v2.07Z"/><rect class="cls-4" x="165.5" y="74.51" width="16.28" height="12.2"/><path class="cls-5" d="M181.78,87.22H165.5a0.51,0.51,0,0,1-.51-0.51V74.51A0.51,0.51,0,0,1,165.5,74h16.28a0.51,0.51,0,0,1,.51.51v12.2A0.51,0.51,0,0,1,181.78,87.22ZM166,86.2h15.26V75H166V86.2Z"/><rect class="cls-4" x="165.5" y="91.47" width="16.28" height="12.2"/><path class="cls-5" d="M181.78,104.18H165.5a0.51,0.51,0,0,1-.51-0.51V91.47A0.51,0.51,0,0,1,165.5,91h16.28a0.51,0.51,0,0,1,.51.51v12.2A0.51,0.51,0,0,1,181.78,104.18Zm-15.77-1h15.26V92H166v11.17Z"/><path class="cls-4" d="M130.62,80.06a0.84,0.84,0,0,1,0,1.59l-11.21,6.47a0.84,0.84,0,0,1-1.38-.79V74.38a0.84,0.84,0,0,1,1.38-.8Z"/><path class="cls-5" d="M118.8,88.81a1.33,1.33,0,0,1-1.28-1.49V74.38a1.32,1.32,0,0,1,1.28-1.49,1.74,1.74,0,0,1,.87.25l11.21,6.47a1.34,1.34,0,0,1,0,2.47l-11.21,6.47A1.74,1.74,0,0,1,118.8,88.81Zm0-14.9c-0.22,0-.25.29-0.25,0.47V87.32c0,0.17,0,.47.25,0.47a0.77,0.77,0,0,0,.36-0.12l11.21-6.47a0.35,0.35,0,0,0,0-.7L119.16,74A0.77,0.77,0,0,0,118.8,73.91Z"/><path class="cls-4" d="M176.14,63.24a0.28,0.28,0,0,1,0,.54L172.36,66a0.28,0.28,0,0,1-.46-0.27V61.32a0.28,0.28,0,0,1,.46-0.27Z"/><path class="cls-5" d="M172.15,66.53a0.78,0.78,0,0,1-.77-0.84V61.32a0.8,0.8,0,0,1,1.23-.71l3.78,2.18a0.79,0.79,0,0,1,0,1.42l-3.78,2.18A0.92,0.92,0,0,1,172.15,66.53Zm0.25-4.86v3.67l3.18-1.83Z"/><path class="cls-4" d="M176.14,80.39a0.28,0.28,0,0,1,0,.54l-3.78,2.18a0.28,0.28,0,0,1-.46-0.27V78.48a0.28,0.28,0,0,1,.46-0.27Z"/><path class="cls-5" d="M172.15,83.68a0.78,0.78,0,0,1-.77-0.84V78.48a0.8,0.8,0,0,1,1.23-.71l3.78,2.18a0.79,0.79,0,0,1,0,1.42l-3.78,2.18A0.92,0.92,0,0,1,172.15,83.68Zm0.25-4.86v3.67l3.17-1.83Z"/><path class="cls-4" d="M176.14,97.54a0.28,0.28,0,0,1,0,.54l-3.78,2.18a0.28,0.28,0,0,1-.46-0.27V95.63a0.28,0.28,0,0,1,.46-0.27Z"/><path class="cls-5" d="M172.15,100.84a0.78,0.78,0,0,1-.77-0.84V95.63a0.8,0.8,0,0,1,1.23-.71l3.78,2.18a0.79,0.79,0,0,1,0,1.42l-3.78,2.18A0.92,0.92,0,0,1,172.15,100.84ZM172.41,96v3.66l3.17-1.83Z"/><path class="cls-6" d="M242.41,69.29l-1.06-4h-7l-1.09,4h-6.39l7-21.6h7.75l7.11,21.6h-6.36Zm-2.27-8.8L239.21,57q-0.32-1.18-.79-3c-0.31-1.25-.51-2.14-0.61-2.68q-0.14.75-.52,2.47t-1.73,6.78h4.58Z"/><path class="cls-5" d="M248.78,69.8h-6.38a0.51,0.51,0,0,1-.49-0.38l-1-3.65h-6.2l-1,3.65a0.51,0.51,0,0,1-.49.38h-6.39a0.51,0.51,0,0,1-.49-0.67l7-21.6a0.51,0.51,0,0,1,.49-0.35h7.75a0.51,0.51,0,0,1,.49.35L249.21,69A0.51,0.51,0,0,1,248.78,69.8Zm-6-1h5.25L241.28,48.2h-7l-6.68,20.58h5.29l1-3.65a0.51,0.51,0,0,1,.49-0.38h7a0.51,0.51,0,0,1,.49.38ZM240.14,61h-4.58a0.51,0.51,0,0,1-.49-0.64c0.86-3.26,1.46-5.6,1.73-6.77s0.43-2,.52-2.45a0.51,0.51,0,0,1,.5-0.42h0a0.51,0.51,0,0,1,.5.42c0.09,0.49.28,1.33,0.6,2.64s0.57,2.25.79,3l0.93,3.54A0.51,0.51,0,0,1,240.14,61Zm-3.91-1h3.25l-0.76-2.89q-0.32-1.17-.79-3.05l-0.1-.39,0,0.18C237.54,54.92,237,57,236.23,60Z"/></g><g id="plus"><polygon class="cls-5" points="291.67 60.82 288.08 60.82 288.08 57.24 286.89 57.24 286.89 60.82 283.3 60.82 283.3 62.02 286.89 62.01 286.89 65.6 288.08 65.6 288.08 62.01 291.67 62.01 291.67 60.82"/></g><g id="line"><path class="cls-5" d="M321.25,28.08h-4.68v-1.2h4.68v1.2Zm-9.36,0h-4.68v-1.2h4.68v1.2Zm-9.36,0h-4.68v-1.2h4.68v1.2Z"/></g><g id="line-2" data-name="line"><path class="cls-5" d="M29.34,117.31H24.66v-1.2h4.68v1.2Zm-9.36,0H15.3v-1.2H20v1.2Z"/></g><g id="line-3" data-name="line"><path class="cls-5" d="M293.57,28.08h-4.68v-1.2h4.68v1.2Zm-9.36,0h-4.68v-1.2h4.68v1.2Z"/></g><g id="circle"><circle class="cls-4" cx="314.06" cy="112.62" r="3.15"/><path class="cls-5" d="M314.06,116.38a3.75,3.75,0,1,1,3.75-3.75A3.76,3.76,0,0,1,314.06,116.38Zm0-6.3a2.55,2.55,0,1,0,2.55,2.55A2.55,2.55,0,0,0,314.06,110.07Z"/></g><g id="circle-2" data-name="circle"><circle class="cls-4" cx="19.83" cy="189.1" r="3.15"/><path class="cls-5" d="M19.83,192.85a3.75,3.75,0,1,1,3.75-3.75A3.76,3.76,0,0,1,19.83,192.85Zm0-6.3a2.55,2.55,0,1,0,2.55,2.55A2.56,2.56,0,0,0,19.83,186.55Z"/></g><g id="plus-2" data-name="plus"><polygon class="cls-4" points="319.89 129.17 314.76 129.17 314.76 124.04 313.06 124.04 313.06 129.17 307.92 129.17 307.92 130.87 313.06 130.87 313.06 136.01 314.76 136.01 314.76 130.87 319.89 130.87 319.89 129.17"/></g><g id="magnifier"><rect class="cls-6" x="291.41" y="95.65" width="9.43" height="41.2"/><path class="cls-5" d="M291.41,137.36a0.51,0.51,0,0,1-.51-0.51V95.65a0.51,0.51,0,0,1,.51-0.51h9.43a0.51,0.51,0,0,1,.51.51v41.2a0.51,0.51,0,0,1-.51.51h-9.42Zm0.51-41.2v40.17h8.4V96.16h-8.41Z"/><path class="cls-4" d="M320.73,61.74a24.6,24.6,0,1,0-24.61,24.6A24.63,24.63,0,0,0,320.73,61.74Zm-45.09,0a20.48,20.48,0,1,1,20.48,20.48A20.5,20.5,0,0,1,275.64,61.75Z"/><path class="cls-5" d="M296.12,86.86h0a25.12,25.12,0,1,1,25.13-25.12,24.94,24.94,0,0,1-25.13,25.12Zm0-49.21a24.09,24.09,0,0,0,0,48.19v0A24.09,24.09,0,0,0,296.13,37.65Zm0,45.09v0h0a21,21,0,1,1,21-21,20.84,20.84,0,0,1-21,21Zm0-41a20,20,0,0,0,0,39.94h0v0A20,20,0,0,0,296.12,41.77Z"/><path class="cls-9" d="M296.12,86.35a24.72,24.72,0,0,1-2.82-.17V95.5h5.63V86.18A24.67,24.67,0,0,1,296.12,86.35Z"/><path class="cls-5" d="M298.94,96H293.3a0.51,0.51,0,0,1-.51-0.51V86.18A0.51,0.51,0,0,1,293,85.8a0.53,0.53,0,0,1,.4-0.13,23.45,23.45,0,0,0,5.51,0,0.52,0.52,0,0,1,.4.13,0.51,0.51,0,0,1,.17.38V95.5A0.51,0.51,0,0,1,298.94,96Zm-5.12-1h4.61V86.75a24.29,24.29,0,0,1-4.61,0V95Z"/></g><g id="keyboard"><path class="cls-4" d="M320.79,141.67a2.09,2.09,0,0,0-2.08-2.07H162a2.08,2.08,0,0,0-2.08,2.07V203a2.09,2.09,0,0,0,2.08,2.08h156.7a2.09,2.09,0,0,0,2.08-2.08V141.67Z"/><path class="cls-5" d="M318.71,205.6H162a2.59,2.59,0,0,1-2.59-2.59V141.67a2.59,2.59,0,0,1,2.59-2.59h156.7a2.59,2.59,0,0,1,2.59,2.59V203A2.59,2.59,0,0,1,318.71,205.6ZM162,140.11a1.57,1.57,0,0,0-1.57,1.56V203a1.57,1.57,0,0,0,1.57,1.56h156.7a1.57,1.57,0,0,0,1.57-1.56V141.67a1.57,1.57,0,0,0-1.57-1.56H162Z"/><rect class="cls-7" x="166.85" y="146.86" width="8.42" height="8.42" rx="0.49" ry="0.49"/><path class="cls-5" d="M174.79,155.79h-7.45a1,1,0,0,1-1-1v-7.45a1,1,0,0,1,1-1h7.45a1,1,0,0,1,1,1v7.45A1,1,0,0,1,174.79,155.79Zm0-8.45-7.42,0,0,7.42,7.4,0v-7.42Z"/><path class="cls-7" d="M190.71,165.69a0.49,0.49,0,0,1-.49.49h-7.45a0.49,0.49,0,0,1-.49-0.49v-7.45a0.49,0.49,0,0,1,.49-0.49h7.45a0.49,0.49,0,0,1,.49.49v7.45Z"/><path class="cls-5" d="M190.22,166.7h-7.45a1,1,0,0,1-1-1v-7.45a1,1,0,0,1,1-1h7.45a1,1,0,0,1,1,1v7.45A1,1,0,0,1,190.22,166.7Zm0-8.45-7.42,0,0,7.42,7.4,0v-7.43Z"/><path class="cls-7" d="M185.2,168.34h7.45a0.49,0.49,0,0,1,.49.49v7.45a0.49,0.49,0,0,1-.49.49H185.2a0.49,0.49,0,0,1-.49-0.49v-7.45A0.48,0.48,0,0,1,185.2,168.34Z"/><path class="cls-5" d="M192.65,177.28H185.2a1,1,0,0,1-1-1v-7.45a1,1,0,0,1,1-1h7.45a1,1,0,0,1,1,1v7.45A1,1,0,0,1,192.65,177.28Zm0-8.45-7.43,0,0,7.43,7.4,0v-7.43Z"/><path class="cls-7" d="M188.12,186.86a0.49,0.49,0,0,1-.49.49h-7.45a0.49,0.49,0,0,1-.49-0.49v-7.45a0.48,0.48,0,0,1,.49-0.48h7.45a0.49,0.49,0,0,1,.49.48v7.45Z"/><path class="cls-5" d="M187.63,187.86h-7.45a1,1,0,0,1-1-1v-7.45a1,1,0,0,1,1-1h7.45a1,1,0,0,1,1,1v7.45A1,1,0,0,1,187.63,187.86Zm0-8.45-7.43,0,0,7.42,7.4,0v-7.43Z"/><rect class="cls-7" x="166.85" y="189.5" width="8.42" height="9.72" rx="0.49" ry="0.49"/><path class="cls-5" d="M174.79,199.73h-7.45a1,1,0,0,1-1-1V190a1,1,0,0,1,1-1h7.45a1,1,0,0,1,1,1v8.75A1,1,0,0,1,174.79,199.73Zm0-1v0h0Zm0-8.72-7.42,0,0,8.72,7.4,0V190Z"/><path class="cls-7" d="M177.57,189.5H185a0.48,0.48,0,0,1,.48.48v8.75a0.49,0.49,0,0,1-.49.49h-7.44a0.49,0.49,0,0,1-.49-0.49V190A0.49,0.49,0,0,1,177.57,189.5Z"/><path class="cls-5" d="M185,199.73h-7.45a1,1,0,0,1-1-1V190a1,1,0,0,1,1-1H185a1,1,0,0,1,1,1v8.75A1,1,0,0,1,185,199.73Zm0-9.74-7.42,0,0,8.72,7.39,0V190Z"/><path class="cls-7" d="M187.8,189.5h7.45a0.49,0.49,0,0,1,.49.49v8.75a0.49,0.49,0,0,1-.49.49h-7.45a0.48,0.48,0,0,1-.48-0.48V190A0.49,0.49,0,0,1,187.8,189.5Z"/><path class="cls-5" d="M195.25,199.73H187.8a1,1,0,0,1-1-1V190a1,1,0,0,1,1-1h7.45a1,1,0,0,1,1,1v8.75A1,1,0,0,1,195.25,199.73Zm0-9.74-7.42,0,0,8.72,7.4,0V190Z"/><path class="cls-7" d="M283.1,198.74a0.49,0.49,0,0,1-.49.49h-7.45a0.49,0.49,0,0,1-.49-0.49V190a0.49,0.49,0,0,1,.49-0.49h7.45a0.49,0.49,0,0,1,.49.49v8.75Z"/><path class="cls-5" d="M282.61,199.73h-7.45a1,1,0,0,1-1-1V190a1,1,0,0,1,1-1h7.45a1,1,0,0,1,1,1v8.75A1,1,0,0,1,282.61,199.73Zm0-9.74-7.43,0,0,8.72,7.4,0V190Z"/><path class="cls-7" d="M293.36,198.74a0.48,0.48,0,0,1-.49.49h-7.44a0.49,0.49,0,0,1-.5-0.49v-3.89a0.49,0.49,0,0,1,.5-0.49h7.44a0.49,0.49,0,0,1,.49.49v3.89Z"/><path class="cls-5" d="M292.87,199.73h-7.44a1,1,0,0,1-1-1v-3.89a1,1,0,0,1,1-1h7.44a1,1,0,0,1,1,1v3.89A1,1,0,0,1,292.87,199.73Zm0-4.88-7.42,0,0,3.86,7.4,0v-3.86Z"/><path class="cls-7" d="M313.87,198.74a0.48,0.48,0,0,1-.49.49h-7.45a0.49,0.49,0,0,1-.49-0.49v-3.89a0.49,0.49,0,0,1,.49-0.49h7.45a0.49,0.49,0,0,1,.49.49v3.89Z"/><path class="cls-5" d="M313.38,199.73h-7.45a1,1,0,0,1-1-1v-3.89a1,1,0,0,1,1-1h7.45a1,1,0,0,1,1,1v3.89A1,1,0,0,1,313.38,199.73Zm0-1v0h0Zm0-3.86-7.42,0,0,3.86,7.4,0v-3.86Z"/><path class="cls-7" d="M208.63,198.74a0.48,0.48,0,0,1-.48.49H198a0.49,0.49,0,0,1-.49-0.49V190a0.49,0.49,0,0,1,.49-0.49h10.13a0.49,0.49,0,0,1,.48.49v8.75Z"/><path class="cls-5" d="M208.15,199.73H198a1,1,0,0,1-1-1V190a1,1,0,0,1,1-1h10.13a1,1,0,0,1,1,1v8.75A1,1,0,0,1,208.15,199.73Zm0-9.74L198,190l0,8.72,10.07,0V190Z"/><rect class="cls-7" x="261.75" y="189.5" width="11.1" height="9.72" rx="0.49" ry="0.49"/><path class="cls-5" d="M272.36,199.73H262.24a1,1,0,0,1-1-1V190a1,1,0,0,1,1-1h10.12a1,1,0,0,1,1,1v8.75A1,1,0,0,1,272.36,199.73Zm0-9.74-10.1,0,0,8.72,10.08,0V190Z"/><path class="cls-7" d="M259.91,198.74a0.49,0.49,0,0,1-.49.49H211a0.49,0.49,0,0,1-.49-0.49V190a0.49,0.49,0,0,1,.49-0.49h48.47a0.49,0.49,0,0,1,.49.49v8.75Z"/><path class="cls-5" d="M259.43,199.73H211a1,1,0,0,1-1-1V190a1,1,0,0,1,1-1h48.47a1,1,0,0,1,1,1v8.75A1,1,0,0,1,259.43,199.73Zm0-9.74L211,190l0,8.72,48.43,0V190Z"/><path class="cls-7" d="M198.37,186.86a0.49,0.49,0,0,1-.48.49h-7.45a0.49,0.49,0,0,1-.48-0.49v-7.45a0.48,0.48,0,0,1,.48-0.48h7.45a0.48,0.48,0,0,1,.48.48v7.45Z"/><path class="cls-5" d="M197.89,187.86h-7.45a1,1,0,0,1-1-1v-7.45a1,1,0,0,1,1-1h7.45a1,1,0,0,1,1,1v7.45A1,1,0,0,1,197.89,187.86Zm0-8.45-7.42,0,0,7.42,7.39,0v-7.43Z"/><path class="cls-7" d="M208.63,186.86a0.49,0.49,0,0,1-.48.49H200.7a0.49,0.49,0,0,1-.49-0.49v-7.45a0.48,0.48,0,0,1,.49-0.48h7.45a0.48,0.48,0,0,1,.48.48v7.45Z"/><path class="cls-5" d="M208.15,187.86H200.7a1,1,0,0,1-1-1v-7.45a1,1,0,0,1,1-1h7.45a1,1,0,0,1,1,1v7.45A1,1,0,0,1,208.15,187.86Zm0-8.45-7.42,0,0,7.42,7.39,0v-7.43Z"/><path class="cls-7" d="M218.89,186.86a0.49,0.49,0,0,1-.49.49H211a0.49,0.49,0,0,1-.49-0.49v-7.45a0.49,0.49,0,0,1,.49-0.48h7.45a0.49,0.49,0,0,1,.49.48v7.45Z"/><path class="cls-5" d="M218.4,187.86H211a1,1,0,0,1-1-1v-7.45a1,1,0,0,1,1-1h7.45a1,1,0,0,1,1,1v7.45A1,1,0,0,1,218.4,187.86Zm0-8.45-7.43,0,0,7.42,7.4,0v-7.43Z"/><path class="cls-7" d="M229.14,186.86a0.49,0.49,0,0,1-.48.49h-7.45a0.49,0.49,0,0,1-.49-0.49v-7.45a0.49,0.49,0,0,1,.49-0.48h7.45a0.49,0.49,0,0,1,.48.48v7.45Z"/><path class="cls-5" d="M228.66,187.86h-7.45a1,1,0,0,1-1-1v-7.45a1,1,0,0,1,1-1h7.45a1,1,0,0,1,1,1v7.45A1,1,0,0,1,228.66,187.86Zm0-8.45-7.42,0,0,7.42,7.39,0v-7.43Z"/><path class="cls-7" d="M239.4,186.86a0.49,0.49,0,0,1-.48.49h-7.45a0.49,0.49,0,0,1-.48-0.49v-7.45a0.48,0.48,0,0,1,.48-0.48h7.45a0.48,0.48,0,0,1,.48.48v7.45Z"/><path class="cls-5" d="M238.91,187.86h-7.45a1,1,0,0,1-1-1v-7.45a1,1,0,0,1,1-1h7.45a1,1,0,0,1,1,1v7.45A1,1,0,0,1,238.91,187.86Zm0-8.45-7.42,0,0,7.42,7.39,0v-7.43Z"/><path class="cls-7" d="M249.66,186.86a0.49,0.49,0,0,1-.48.49h-7.45a0.49,0.49,0,0,1-.49-0.49v-7.45a0.49,0.49,0,0,1,.49-0.48h7.45a0.48,0.48,0,0,1,.48.48v7.45Z"/><path class="cls-5" d="M249.17,187.86h-7.45a1,1,0,0,1-1-1v-7.45a1,1,0,0,1,1-1h7.45a1,1,0,0,1,1,1v7.45A1,1,0,0,1,249.17,187.86Zm0-8.45-7.42,0,0,7.42,7.4,0v-7.43Z"/><path class="cls-7" d="M259.91,186.86a0.49,0.49,0,0,1-.49.49H252a0.49,0.49,0,0,1-.48-0.49v-7.45a0.49,0.49,0,0,1,.48-0.48h7.45a0.49,0.49,0,0,1,.49.48v7.45Z"/><path class="cls-5" d="M259.43,187.86H252a1,1,0,0,1-1-1v-7.45a1,1,0,0,1,1-1h7.45a1,1,0,0,1,1,1v7.45A1,1,0,0,1,259.43,187.86Zm0-8.45-7.43,0,0,7.42,7.4,0v-7.43Z"/><path class="cls-7" d="M270.17,186.86a0.49,0.49,0,0,1-.49.49h-7.45a0.5,0.5,0,0,1-.49-0.49v-7.45a0.49,0.49,0,0,1,.49-0.48h7.45a0.49,0.49,0,0,1,.49.48v7.45Z"/><path class="cls-5" d="M269.68,187.86h-7.45a1,1,0,0,1-1-1v-7.45a1,1,0,0,1,1-1h7.45a1,1,0,0,1,1,1v7.45A1,1,0,0,1,269.68,187.86Zm0-8.45-7.42,0,0,7.42,7.4,0v-7.43Z"/><path class="cls-7" d="M280.42,186.86a0.49,0.49,0,0,1-.48.49H272.5a0.49,0.49,0,0,1-.49-0.49v-7.45a0.48,0.48,0,0,1,.49-0.48h7.45a0.48,0.48,0,0,1,.48.48v7.45Z"/><path class="cls-5" d="M279.94,187.86H272.5a1,1,0,0,1-1-1v-7.45a1,1,0,0,1,1-1h7.45a1,1,0,0,1,1,1v7.45A1,1,0,0,1,279.94,187.86Zm0-8.45-7.42,0,0,7.42,7.39,0v-7.43Z"/><path class="cls-7" d="M290.69,186.86a0.5,0.5,0,0,1-.49.49h-7.45a0.49,0.49,0,0,1-.49-0.49v-7.45a0.48,0.48,0,0,1,.49-0.48h7.45a0.49,0.49,0,0,1,.49.48v7.45Z"/><path class="cls-5" d="M290.2,187.86h-7.45a1,1,0,0,1-1-1v-7.45a1,1,0,0,1,1-1h7.45a1,1,0,0,1,1,1v7.45A1,1,0,0,1,290.2,187.86Zm0-8.45-7.43,0,0,7.42,7.4,0v-7.43Z"/><path class="cls-7" d="M313.78,186.86a0.49,0.49,0,0,1-.48.49H293a0.49,0.49,0,0,1-.49-0.49v-7.45a0.49,0.49,0,0,1,.49-0.48h20.3a0.48,0.48,0,0,1,.48.48v7.45Z"/><path class="cls-5" d="M313.3,187.86H293a1,1,0,0,1-1-1v-7.45a1,1,0,0,1,1-1h20.3a1,1,0,0,1,1,1v7.45A1,1,0,0,1,313.3,187.86Zm0-8.45-20.27,0,0,7.42,20.24,0v-7.43Z"/><path class="cls-7" d="M195.46,168.34h7.45a0.48,0.48,0,0,1,.48.48v7.46a0.49,0.49,0,0,1-.49.49h-7.45a0.48,0.48,0,0,1-.48-0.48v-7.46A0.48,0.48,0,0,1,195.46,168.34Z"/><path class="cls-5" d="M202.91,177.28h-7.45a1,1,0,0,1-1-1v-7.45a1,1,0,0,1,1-1h7.45a1,1,0,0,1,1,1v7.45A1,1,0,0,1,202.91,177.28Zm0-8.45-7.43,0,0,7.43,7.4,0v-7.43Z"/><path class="cls-7" d="M213.65,176.28a0.49,0.49,0,0,1-.49.48h-7.45a0.48,0.48,0,0,1-.48-0.48v-7.45a0.49,0.49,0,0,1,.48-0.49h7.45a0.49,0.49,0,0,1,.49.49v7.45Z"/><path class="cls-5" d="M213.16,177.28h-7.45a1,1,0,0,1-1-1v-7.45a1,1,0,0,1,1-1h7.45a1,1,0,0,1,1,1v7.45A1,1,0,0,1,213.16,177.28Zm0-1v0h0Zm0-7.43-7.43,0,0,7.43,7.4,0v-7.43Z"/><path class="cls-7" d="M216,168.34h7.45a0.48,0.48,0,0,1,.48.48v7.45a0.49,0.49,0,0,1-.49.49H216a0.49,0.49,0,0,1-.49-0.49v-7.45A0.48,0.48,0,0,1,216,168.34Z"/><path class="cls-5" d="M223.42,177.28H216a1,1,0,0,1-1-1v-7.45a1,1,0,0,1,1-1h7.45a1,1,0,0,1,1,1v7.45A1,1,0,0,1,223.42,177.28Zm0-8.45-7.42,0,0,7.43,7.4,0v-7.43Z"/><path class="cls-7" d="M226.23,168.34h7.45a0.48,0.48,0,0,1,.48.48v7.46a0.49,0.49,0,0,1-.49.49h-7.45a0.49,0.49,0,0,1-.49-0.49v-7.45A0.48,0.48,0,0,1,226.23,168.34Z"/><path class="cls-5" d="M233.68,177.28h-7.45a1,1,0,0,1-1-1v-7.45a1,1,0,0,1,1-1h7.45a1,1,0,0,1,1,1v7.45A1,1,0,0,1,233.68,177.28Zm0-8.45-7.43,0,0,7.43,7.4,0v-7.43Z"/><path class="cls-7" d="M244.42,176.28a0.49,0.49,0,0,1-.49.48h-7.45a0.49,0.49,0,0,1-.49-0.48v-7.45a0.49,0.49,0,0,1,.49-0.49h7.45a0.49,0.49,0,0,1,.49.49v7.45Z"/><path class="cls-5" d="M243.94,177.28h-7.45a1,1,0,0,1-1-1v-7.45a1,1,0,0,1,1-1h7.45a1,1,0,0,1,1,1v7.45A1,1,0,0,1,243.94,177.28Zm0-8.45-7.43,0,0,7.43,7.4,0v-7.43Z"/><path class="cls-7" d="M246.74,168.34h7.45a0.48,0.48,0,0,1,.48.48v7.45a0.49,0.49,0,0,1-.49.49h-7.44a0.49,0.49,0,0,1-.49-0.49v-7.45A0.48,0.48,0,0,1,246.74,168.34Z"/><path class="cls-5" d="M254.19,177.28h-7.45a1,1,0,0,1-1-1v-7.45a1,1,0,0,1,1-1h7.45a1,1,0,0,1,1,1v7.45A1,1,0,0,1,254.19,177.28Zm0-8.45-7.42,0,0,7.43,7.39,0v-7.43Z"/><path class="cls-7" d="M257,168.34h7.45a0.49,0.49,0,0,1,.49.49v7.45a0.49,0.49,0,0,1-.49.49H257a0.48,0.48,0,0,1-.48-0.48v-7.46A0.48,0.48,0,0,1,257,168.34Z"/><path class="cls-5" d="M264.45,177.28H257a1,1,0,0,1-1-1v-7.45a1,1,0,0,1,1-1h7.45a1,1,0,0,1,1,1v7.45A1,1,0,0,1,264.45,177.28Zm0-8.45-7.42,0,0,7.43,7.39,0v-7.43Z"/><path class="cls-7" d="M267.25,168.34h7.45a0.48,0.48,0,0,1,.48.48v7.45a0.49,0.49,0,0,1-.49.49h-7.45a0.48,0.48,0,0,1-.48-0.48v-7.46A0.48,0.48,0,0,1,267.25,168.34Z"/><path class="cls-5" d="M274.71,177.28h-7.45a1,1,0,0,1-1-1v-7.45a1,1,0,0,1,1-1h7.45a1,1,0,0,1,1,1v7.45A1,1,0,0,1,274.71,177.28Zm0-8.45-7.42,0,0,7.43,7.4,0v-7.43Z"/><path class="cls-7" d="M277.51,168.34H285a0.49,0.49,0,0,1,.49.49v7.45a0.49,0.49,0,0,1-.49.49h-7.45a0.49,0.49,0,0,1-.49-0.49v-7.45A0.48,0.48,0,0,1,277.51,168.34Z"/><path class="cls-5" d="M285,177.28h-7.45a1,1,0,0,1-1-1v-7.45a1,1,0,0,1,1-1H285a1,1,0,0,1,1,1v7.45A1,1,0,0,1,285,177.28Zm0-8.45-7.42,0,0,7.43,7.4,0v-7.43Z"/><path class="cls-7" d="M295.7,176.28a0.49,0.49,0,0,1-.49.48h-7.45a0.49,0.49,0,0,1-.49-0.48v-7.45a0.49,0.49,0,0,1,.49-0.49h7.45a0.49,0.49,0,0,1,.49.49v7.45Z"/><path class="cls-5" d="M295.22,177.28h-7.45a1,1,0,0,1-1-1v-7.45a1,1,0,0,1,1-1h7.45a1,1,0,0,1,1,1v7.45A1,1,0,0,1,295.22,177.28Zm0-8.45-7.42,0,0,7.43,7.4,0v-7.43Z"/><path class="cls-7" d="M306,176.28a0.49,0.49,0,0,1-.49.48H298a0.48,0.48,0,0,1-.48-0.48v-7.45a0.49,0.49,0,0,1,.48-0.49h7.45a0.49,0.49,0,0,1,.49.49v7.45Z"/><path class="cls-5" d="M305.47,177.28H298a1,1,0,0,1-1-1v-7.45a1,1,0,0,1,1-1h7.45a1,1,0,0,1,1,1v7.45A1,1,0,0,1,305.47,177.28Zm0-8.45-7.43,0,0,7.43,7.4,0v-7.43Z"/><path class="cls-7" d="M201,165.69a0.49,0.49,0,0,1-.48.49H193a0.5,0.5,0,0,1-.49-0.49v-7.45a0.5,0.5,0,0,1,.49-0.49h7.45a0.49,0.49,0,0,1,.48.49v7.45Z"/><path class="cls-5" d="M200.48,166.7H193a1,1,0,0,1-1-1v-7.45a1,1,0,0,1,1-1h7.45a1,1,0,0,1,1,1v7.45A1,1,0,0,1,200.48,166.7Zm0-8.45-7.43,0,0,7.42,7.41,0v-7.43Z"/><path class="cls-7" d="M211.22,165.69a0.49,0.49,0,0,1-.49.49h-7.45a0.49,0.49,0,0,1-.48-0.49v-7.45a0.49,0.49,0,0,1,.48-0.49h7.45a0.49,0.49,0,0,1,.49.49v7.45Z"/><path class="cls-5" d="M210.73,166.7h-7.45a1,1,0,0,1-1-1v-7.45a1,1,0,0,1,1-1h7.45a1,1,0,0,1,1,1v7.45A1,1,0,0,1,210.73,166.7Zm0-1v0h0Zm0-7.43-7.42,0,0,7.42,7.4,0v-7.43Z"/><path class="cls-7" d="M213.55,157.76H221a0.48,0.48,0,0,1,.48.48v7.46a0.49,0.49,0,0,1-.49.49h-7.45a0.49,0.49,0,0,1-.49-0.49v-7.45A0.49,0.49,0,0,1,213.55,157.76Z"/><path class="cls-5" d="M221,166.7h-7.45a1,1,0,0,1-1-1v-7.45a1,1,0,0,1,1-1H221a1,1,0,0,1,1,1v7.45A1,1,0,0,1,221,166.7Zm0-8.45-7.42,0,0,7.42,7.4,0v-7.43Z"/><rect class="cls-7" x="223.31" y="157.76" width="8.42" height="8.43" rx="0.49" ry="0.49"/><path class="cls-5" d="M231.25,166.7H223.8a1,1,0,0,1-1-1v-7.45a1,1,0,0,1,1-1h7.45a1,1,0,0,1,1,1v7.45A1,1,0,0,1,231.25,166.7Zm0-8.45-7.42,0,0,7.42,7.4,0v-7.43Z"/><path class="cls-7" d="M242,165.69a0.49,0.49,0,0,1-.49.49h-7.45a0.49,0.49,0,0,1-.48-0.49v-7.45a0.49,0.49,0,0,1,.48-0.49h7.45a0.49,0.49,0,0,1,.49.49v7.45Z"/><path class="cls-5" d="M241.5,166.7h-7.45a1,1,0,0,1-1-1v-7.45a1,1,0,0,1,1-1h7.45a1,1,0,0,1,1,1v7.45A1,1,0,0,1,241.5,166.7Zm0-8.45-7.42,0,0,7.42,7.4,0v-7.43Z"/><path class="cls-7" d="M252.25,165.69a0.49,0.49,0,0,1-.48.49h-7.45a0.49,0.49,0,0,1-.48-0.49v-7.45a0.49,0.49,0,0,1,.48-0.49h7.45a0.49,0.49,0,0,1,.48.49v7.45Z"/><path class="cls-5" d="M251.76,166.7h-7.45a1,1,0,0,1-1-1v-7.45a1,1,0,0,1,1-1h7.45a1,1,0,0,1,1,1v7.45A1,1,0,0,1,251.76,166.7Zm0-8.45-7.43,0,0,7.42,7.4,0v-7.43Z"/><path class="cls-7" d="M262.5,165.69a0.48,0.48,0,0,1-.48.49h-7.45a0.49,0.49,0,0,1-.49-0.49v-7.45a0.49,0.49,0,0,1,.49-0.49H262a0.49,0.49,0,0,1,.48.49v7.45Z"/><path class="cls-5" d="M262,166.7h-7.45a1,1,0,0,1-1-1v-7.45a1,1,0,0,1,1-1H262a1,1,0,0,1,1,1v7.45A1,1,0,0,1,262,166.7Zm0-8.45-7.42,0,0,7.42,7.4,0v-7.43Z"/><path class="cls-7" d="M272.76,165.69a0.49,0.49,0,0,1-.49.49h-7.45a0.49,0.49,0,0,1-.49-0.49v-7.45a0.49,0.49,0,0,1,.49-0.49h7.45a0.49,0.49,0,0,1,.49.49v7.45Z"/><path class="cls-5" d="M272.27,166.7h-7.45a1,1,0,0,1-1-1v-7.45a1,1,0,0,1,1-1h7.45a1,1,0,0,1,1,1v7.45A1,1,0,0,1,272.27,166.7Zm0-8.45-7.43,0,0,7.42,7.4,0v-7.43Z"/><path class="cls-7" d="M283,165.69a0.49,0.49,0,0,1-.48.49h-7.46a0.49,0.49,0,0,1-.48-0.49v-7.45a0.49,0.49,0,0,1,.48-0.49h7.46a0.49,0.49,0,0,1,.48.49v7.45Z"/><path class="cls-5" d="M282.54,166.7h-7.46a1,1,0,0,1-1-1v-7.45a1,1,0,0,1,1-1h7.46a1,1,0,0,1,1,1v7.45A1,1,0,0,1,282.54,166.7Zm0-8.45-7.42,0,0,7.42,7.39,0v-7.43Z"/><path class="cls-7" d="M293.28,165.69a0.49,0.49,0,0,1-.49.49h-7.45a0.49,0.49,0,0,1-.48-0.49v-7.45a0.49,0.49,0,0,1,.48-0.49h7.45a0.49,0.49,0,0,1,.49.49v7.45Z"/><path class="cls-5" d="M292.79,166.7h-7.45a1,1,0,0,1-1-1v-7.45a1,1,0,0,1,1-1h7.45a1,1,0,0,1,1,1v7.45A1,1,0,0,1,292.79,166.7Zm0-8.45-7.43,0,0,7.42,7.4,0v-7.43Z"/><path class="cls-7" d="M303.53,165.69a0.49,0.49,0,0,1-.49.49H295.6a0.49,0.49,0,0,1-.49-0.49v-7.45a0.49,0.49,0,0,1,.49-0.49H303a0.49,0.49,0,0,1,.49.49v7.45Z"/><path class="cls-5" d="M303,166.7H295.6a1,1,0,0,1-1-1v-7.45a1,1,0,0,1,1-1H303a1,1,0,0,1,1,1v7.45A1,1,0,0,1,303,166.7Zm0-8.45-7.42,0,0,7.42,7.4,0v-7.43Z"/><rect class="cls-7" x="166.85" y="157.76" width="13.61" height="8.43" rx="0.49" ry="0.49"/><path class="cls-5" d="M180,166.7H167.33a1,1,0,0,1-1-1v-7.45a1,1,0,0,1,1-1H180a1,1,0,0,1,1,1v7.45A1,1,0,0,1,180,166.7Zm0-8.45-12.61,0,0,7.42,12.59,0v-7.43Z"/><path class="cls-7" d="M313.78,154.79a0.48,0.48,0,0,1-.48.49H300.67a0.49,0.49,0,0,1-.48-0.49v-7.45a0.49,0.49,0,0,1,.48-0.49H313.3a0.49,0.49,0,0,1,.48.49v7.45Z"/><path class="cls-5" d="M313.3,155.79H300.67a1,1,0,0,1-1-1v-7.45a1,1,0,0,1,1-1H313.3a1,1,0,0,1,1,1v7.45A1,1,0,0,1,313.3,155.79Zm0-8.45-12.61,0,0,7.42,12.58,0v-7.42Z"/><path class="cls-7" d="M167.33,168.34h15.06a0.49,0.49,0,0,1,.49.49v7.45a0.49,0.49,0,0,1-.49.49H167.33a0.49,0.49,0,0,1-.49-0.49v-7.45A0.48,0.48,0,0,1,167.33,168.34Z"/><path class="cls-5" d="M182.39,177.28H167.33a1,1,0,0,1-1-1v-7.45a1,1,0,0,1,1-1h15.06a1,1,0,0,1,1,1v7.45A1,1,0,0,1,182.39,177.28Zm0-1v0h0Zm0-7.43-15,0,0,7.43,15,0v-7.43Z"/><path class="cls-7" d="M177.87,186.86a0.49,0.49,0,0,1-.49.49h-10a0.49,0.49,0,0,1-.49-0.49v-7.45a0.49,0.49,0,0,1,.49-0.48h10a0.49,0.49,0,0,1,.49.48v7.45Z"/><path class="cls-5" d="M177.38,187.86h-10a1,1,0,0,1-1-1v-7.45a1,1,0,0,1,1-1h10a1,1,0,0,1,1,1v7.45A1,1,0,0,1,177.38,187.86Zm0-8.45-10,0,0,7.42,10,0v-7.43Z"/><rect class="cls-7" x="177.11" y="146.86" width="8.42" height="8.42" rx="0.49" ry="0.49"/><path class="cls-5" d="M185,155.79H177.6a1,1,0,0,1-1-1v-7.45a1,1,0,0,1,1-1H185a1,1,0,0,1,1,1v7.45A1,1,0,0,1,185,155.79Zm0-1v0h0Zm0-7.42-7.42,0,0,7.42,7.4,0v-7.42Z"/><rect class="cls-7" x="187.36" y="146.86" width="8.42" height="8.42" rx="0.49" ry="0.49"/><path class="cls-5" d="M195.3,155.79h-7.45a1,1,0,0,1-1-1v-7.45a1,1,0,0,1,1-1h7.45a1,1,0,0,1,1,1v7.45A1,1,0,0,1,195.3,155.79Zm0-8.45-7.42,0,0,7.42,7.39,0v-7.42Z"/><path class="cls-7" d="M206,154.79a0.49,0.49,0,0,1-.49.49H198.1a0.49,0.49,0,0,1-.49-0.49v-7.45a0.49,0.49,0,0,1,.49-0.49h7.45a0.49,0.49,0,0,1,.49.49v7.45Z"/><path class="cls-5" d="M205.55,155.79H198.1a1,1,0,0,1-1-1v-7.45a1,1,0,0,1,1-1h7.45a1,1,0,0,1,1,1v7.45A1,1,0,0,1,205.55,155.79Zm0-8.45-7.43,0,0,7.42,7.41,0v-7.42Z"/><rect class="cls-7" x="207.87" y="146.86" width="8.42" height="8.42" rx="0.49" ry="0.49"/><path class="cls-5" d="M215.81,155.79h-7.45a1,1,0,0,1-1-1v-7.45a1,1,0,0,1,1-1h7.45a1,1,0,0,1,1,1v7.45A1,1,0,0,1,215.81,155.79Zm0-8.45-7.43,0,0,7.42,7.4,0v-7.42Z"/><path class="cls-7" d="M226.55,154.79a0.48,0.48,0,0,1-.48.49h-7.45a0.49,0.49,0,0,1-.49-0.49v-7.45a0.49,0.49,0,0,1,.49-0.49h7.45a0.48,0.48,0,0,1,.48.49v7.45Z"/><path class="cls-5" d="M226.07,155.79h-7.45a1,1,0,0,1-1-1v-7.45a1,1,0,0,1,1-1h7.45a1,1,0,0,1,1,1v7.45A1,1,0,0,1,226.07,155.79Zm0-8.45-7.42,0,0,7.42,7.4,0v-7.42Z"/><path class="cls-7" d="M236.82,154.79a0.49,0.49,0,0,1-.49.49h-7.44a0.49,0.49,0,0,1-.49-0.49v-7.45a0.49,0.49,0,0,1,.49-0.49h7.44a0.49,0.49,0,0,1,.49.49v7.45Z"/><path class="cls-5" d="M236.32,155.79h-7.44a1,1,0,0,1-1-1v-7.45a1,1,0,0,1,1-1h7.44a1,1,0,0,1,1,1v7.45A1,1,0,0,1,236.32,155.79Zm0-8.45-7.42,0,0,7.42,7.4,0v-7.42Z"/><rect class="cls-7" x="238.65" y="146.86" width="8.42" height="8.42" rx="0.49" ry="0.49"/><path class="cls-5" d="M246.58,155.79h-7.45a1,1,0,0,1-1-1v-7.45a1,1,0,0,1,1-1h7.45a1,1,0,0,1,1,1v7.45A1,1,0,0,1,246.58,155.79Zm0-8.45-7.42,0,0,7.42,7.4,0v-7.42Z"/><rect class="cls-7" x="248.9" y="146.86" width="8.43" height="8.42" rx="0.49" ry="0.49"/><path class="cls-5" d="M256.83,155.79h-7.45a1,1,0,0,1-1-1v-7.45a1,1,0,0,1,1-1h7.45a1,1,0,0,1,1,1v7.45A1,1,0,0,1,256.83,155.79Zm0-8.45-7.42,0,0,7.42,7.4,0v-7.42Z"/><path class="cls-7" d="M267.58,154.79a0.49,0.49,0,0,1-.48.49h-7.45a0.49,0.49,0,0,1-.49-0.49v-7.45a0.49,0.49,0,0,1,.49-0.49h7.45a0.49,0.49,0,0,1,.48.49v7.45Z"/><path class="cls-5" d="M267.1,155.79h-7.45a1,1,0,0,1-1-1v-7.45a1,1,0,0,1,1-1h7.45a1,1,0,0,1,1,1v7.45A1,1,0,0,1,267.1,155.79Zm0-8.45-7.42,0,0,7.42,7.4,0v-7.42Z"/><rect class="cls-7" x="269.42" y="146.86" width="8.42" height="8.42" rx="0.49" ry="0.49"/><path class="cls-5" d="M277.35,155.79H269.9a1,1,0,0,1-1-1v-7.45a1,1,0,0,1,1-1h7.45a1,1,0,0,1,1,1v7.45A1,1,0,0,1,277.35,155.79Zm0-8.45-7.42,0,0,7.42,7.4,0v-7.42Z"/><rect class="cls-7" x="279.67" y="146.86" width="8.42" height="8.42" rx="0.49" ry="0.49"/><path class="cls-5" d="M287.61,155.79h-7.45a1,1,0,0,1-1-1v-7.45a1,1,0,0,1,1-1h7.45a1,1,0,0,1,1,1v7.45A1,1,0,0,1,287.61,155.79Zm0-8.45-7.42,0,0,7.42,7.4,0v-7.42Z"/><rect class="cls-7" x="289.93" y="146.86" width="8.42" height="8.42" rx="0.49" ry="0.49"/><path class="cls-5" d="M297.86,155.79h-7.45a1,1,0,0,1-1-1v-7.45a1,1,0,0,1,1-1h7.45a1,1,0,0,1,1,1v7.45A1,1,0,0,1,297.86,155.79Zm0-8.45-7.42,0,0,7.42,7.4,0v-7.42Z"/><path class="cls-7" d="M295.19,194.64v4.1a0.48,0.48,0,0,0,.14.34,0.5,0.5,0,0,0,.35.14h7.45a0.48,0.48,0,0,0,.34-0.14,0.47,0.47,0,0,0,.14-0.34v-4.1h-8.42Z"/><path class="cls-5" d="M303.13,199.73h-7.45a1,1,0,0,1-.71-0.29,1,1,0,0,1-.29-0.71v-4.1a0.51,0.51,0,0,1,.51-0.51h8.42a0.51,0.51,0,0,1,.51.51v4.1A1,1,0,0,1,303.13,199.73Zm-7.42-4.58v3.59l7.41,0v-3.56h-7.4Z"/><path class="cls-7" d="M303.61,192.47V190a0.5,0.5,0,0,0-.49-0.49h-7.45a0.49,0.49,0,0,0-.35.15,0.48,0.48,0,0,0-.14.34v2.48h8.42Z"/><path class="cls-5" d="M303.61,193h-8.42a0.51,0.51,0,0,1-.51-0.51V190a1,1,0,0,1,1-1h7.45a1,1,0,0,1,1,1v2.48A0.51,0.51,0,0,1,303.61,193Zm-7.91-1h7.4v-2l-7.42,0Z"/><path class="cls-7" d="M305.85,157.76a0.49,0.49,0,0,0-.48.49v7.45a0.48,0.48,0,0,0,.48.49h1.95v10.09a0.46,0.46,0,0,0,.14.34,0.46,0.46,0,0,0,.34.14h5a0.49,0.49,0,0,0,.35-0.14,0.47,0.47,0,0,0,.14-0.34v-18a0.47,0.47,0,0,0-.14-0.34,0.48,0.48,0,0,0-.35-0.15h-7.45Z"/><path class="cls-5" d="M313.3,177.28h-5a1,1,0,0,1-.72-0.31,1,1,0,0,1-.28-0.69V166.7h-1.43a1,1,0,0,1-.69-0.27,1,1,0,0,1-.3-0.73v-7.45a1,1,0,0,1,.3-0.71,1,1,0,0,1,.69-0.29h7.45a1,1,0,0,1,.71.3,1,1,0,0,1,.29.7v18a1,1,0,0,1-.29.7A1,1,0,0,1,313.3,177.28Zm-5.51-11.6a0.51,0.51,0,0,1,.51.51v10.09l5,0v-18l-7.42,0,0,7.42Z"/></g><g id="laptop"><path class="cls-4" d="M142.59,195.31a3.82,3.82,0,0,1-1.12,2.71,3.78,3.78,0,0,1-2.71,1.12h-108A3.82,3.82,0,0,1,27,195.31v-69a3.82,3.82,0,0,1,3.83-3.82h108a3.82,3.82,0,0,1,3.83,3.82v69Z"/><path class="cls-5" d="M138.77,199.65h-108a4.33,4.33,0,0,1-4.34-4.34v-69A4.33,4.33,0,0,1,30.79,122h108a4.33,4.33,0,0,1,4.34,4.33v69A4.34,4.34,0,0,1,138.77,199.65ZM30.79,123a3.3,3.3,0,0,0-3.32,3.31v69a3.31,3.31,0,0,0,3.32,3.32h108a3.31,3.31,0,0,0,3.32-3.32v-69a3.31,3.31,0,0,0-3.32-3.31h-108Z"/><rect class="cls-4" x="32.98" y="128.38" width="103.59" height="64.74"/><path class="cls-5" d="M136.57,193.63H33a0.51,0.51,0,0,1-.51-0.51V128.38a0.51,0.51,0,0,1,.51-0.51H136.57a0.51,0.51,0,0,1,.51.51v64.74A0.51,0.51,0,0,1,136.57,193.63Zm-103.08-1H136.06V128.89H33.49v63.72Z"/><path class="cls-9" d="M154.09,199.14h-139s0,0.09,0,.13a6.15,6.15,0,0,0,6.1,6.1,6.19,6.19,0,0,0,1-.1H147a4.93,4.93,0,0,0,2,0,6.09,6.09,0,0,0,5.12-6S154.09,199.18,154.09,199.14Z"/><path class="cls-5" d="M148,205.88a6.68,6.68,0,0,1-1.06-.1H22.17a5.51,5.51,0,0,1-1,.1,6.54,6.54,0,0,1-2.79-.64,6.63,6.63,0,0,1-3.82-6s0-.11,0-0.14a0.51,0.51,0,0,1,.51-0.5h139a0.51,0.51,0,0,1,.51.51,0.77,0.77,0,0,1,0,.14,6.57,6.57,0,0,1-5.55,6.51A6.65,6.65,0,0,1,148,205.88Zm-1-1.12a5.73,5.73,0,0,0,1.87,0,5.56,5.56,0,0,0,4.68-5.12h-138a5.61,5.61,0,0,0,3.22,4.67,5.47,5.47,0,0,0,3.25.45H147Z"/><path class="cls-7" d="M105.37,163.57v-6.27l-5.58-.46a17,17,0,0,0-2.2-5.7l3.72-4.4-4.44-4.44-4.27,3.61A17.1,17.1,0,0,0,87,143.43l-0.48-5.75H80.27l-0.47,5.58a17,17,0,0,0-5.7,2.2l-4.4-3.73-4.44,4.44,3.62,4.27A16.93,16.93,0,0,0,66.41,156l-5.75.48v6.27l5.58,0.47a17,17,0,0,0,2.2,5.7l-3.73,4.4,4.44,4.44,4.27-3.61A17,17,0,0,0,79,176.64l0.48,5.75h6.27l0.47-5.58a17,17,0,0,0,5.7-2.2l4.4,3.73,4.44-4.44-3.61-4.27A17,17,0,0,0,99.62,164ZM83,167a7,7,0,1,1,7-7A7,7,0,0,1,83,167Z"/><path class="cls-5" d="M85.76,182.91H79.49a0.51,0.51,0,0,1-.51-0.47L78.53,177a17.46,17.46,0,0,1-5.07-2.24l-4,3.37a0.51,0.51,0,0,1-.69,0l-4.44-4.44a0.51,0.51,0,0,1,0-.69l3.49-4.12a17.45,17.45,0,0,1-2-5.17l-5.2-.43a0.51,0.51,0,0,1-.47-0.51v-6.27a0.51,0.51,0,0,1,.47-0.51l5.39-.45a17.36,17.36,0,0,1,2.24-5.07l-3.37-4a0.51,0.51,0,0,1,0-.69l4.44-4.44a0.51,0.51,0,0,1,.69,0l4.12,3.49a17.44,17.44,0,0,1,5.17-2l0.43-5.2a0.51,0.51,0,0,1,.51-0.47h6.27a0.51,0.51,0,0,1,.51.47L87.51,143a17.54,17.54,0,0,1,5.07,2.24l4-3.36a0.51,0.51,0,0,1,.69,0l4.44,4.44a0.51,0.51,0,0,1,0,.69l-3.49,4.12a17.41,17.41,0,0,1,2,5.17l5.19,0.43a0.51,0.51,0,0,1,.47.51v6.27a0.51,0.51,0,0,1-.47.51l-5.38.45a17.43,17.43,0,0,1-2.24,5.07l3.37,4a0.51,0.51,0,0,1,0,.69l-4.44,4.44a0.51,0.51,0,0,1-.69,0l-4.12-3.49a17.44,17.44,0,0,1-5.17,2l-0.43,5.2A0.51,0.51,0,0,1,85.76,182.91Zm-5.8-1h5.33l0.43-5.11a0.51,0.51,0,0,1,.41-0.46,16.47,16.47,0,0,0,5.53-2.13,0.51,0.51,0,0,1,.6,0l4,3.42,3.77-3.77L96.76,170a0.51,0.51,0,0,1,0-.62,16.43,16.43,0,0,0,2.4-5.42,0.51,0.51,0,0,1,.45-0.39l5.28-.44v-5.33l-5.11-.43a0.51,0.51,0,0,1-.46-0.41,16.43,16.43,0,0,0-2.13-5.53,0.51,0.51,0,0,1,0-.6l3.42-4L96.85,143l-3.91,3.31a0.51,0.51,0,0,1-.62,0,16.54,16.54,0,0,0-5.42-2.39,0.51,0.51,0,0,1-.39-0.45l-0.44-5.28H80.74l-0.43,5.11a0.51,0.51,0,0,1-.41.46,16.44,16.44,0,0,0-5.53,2.13,0.51,0.51,0,0,1-.6,0l-4-3.42L66,146.2l3.31,3.91a0.51,0.51,0,0,1,0,.62,16.38,16.38,0,0,0-2.4,5.42,0.51,0.51,0,0,1-.45.39l-5.28.44v5.33l5.11,0.43a0.51,0.51,0,0,1,.46.41,16.42,16.42,0,0,0,2.13,5.53,0.51,0.51,0,0,1,0,.6l-3.42,4,3.77,3.77,3.91-3.31a0.51,0.51,0,0,1,.62,0,16.45,16.45,0,0,0,5.42,2.39,0.51,0.51,0,0,1,.39.45ZM83,167.51A7.47,7.47,0,1,1,90.49,160,7.48,7.48,0,0,1,83,167.51Zm0-13.92A6.45,6.45,0,1,0,89.46,160,6.46,6.46,0,0,0,83,153.59Z"/></g><g id="person"><path class="cls-9" d="M38,68.32A19.73,19.73,0,1,1,57.77,48.58,19.76,19.76,0,0,1,38,68.32Z"/><path class="cls-5" d="M38,68.83A20.24,20.24,0,1,1,58.28,48.58,20.27,20.27,0,0,1,38,68.83Zm0-39.47A19.22,19.22,0,1,0,57.25,48.58,19.25,19.25,0,0,0,38,29.36Z"/><path class="cls-4" d="M38,55.44a8.34,8.34,0,1,1,8.34-8.34A8.35,8.35,0,0,1,38,55.44Z"/><path class="cls-5" d="M38,55.95a8.85,8.85,0,1,1,8.85-8.85A8.86,8.86,0,0,1,38,55.95Zm0-16.68a7.83,7.83,0,1,0,7.83,7.83A7.84,7.84,0,0,0,38,39.26Z"/><path class="cls-4" d="M43.59,53.29a8.29,8.29,0,0,1-11.12,0,8.34,8.34,0,0,0-7.94,8.32v1.19L25,63.24a19,19,0,0,0,26.08,0l0.46-.43V61.61A8.35,8.35,0,0,0,43.59,53.29Z"/><path class="cls-5" d="M38,68.94a19.46,19.46,0,0,1-13.39-5.33l-0.46-.43A0.51,0.51,0,0,1,24,62.81V61.61a8.84,8.84,0,0,1,8.43-8.83,0.51,0.51,0,0,1,.37.13,7.78,7.78,0,0,0,10.44,0,0.52,0.52,0,0,1,.37-0.13A8.84,8.84,0,0,1,52,61.61v1.19a0.51,0.51,0,0,1-.16.37l-0.46.43A19.47,19.47,0,0,1,38,68.94ZM25,62.59l0.3,0.28a18.47,18.47,0,0,0,25.38,0l0.3-.28v-1a7.82,7.82,0,0,0-7.25-7.8,8.8,8.8,0,0,1-11.48,0A7.81,7.81,0,0,0,25,61.61v1Z"/></g><g id="chat"><polygon class="cls-4" points="60.44 74.99 15.79 74.99 15.79 108.5 39.2 108.5 49.87 119.18 49.87 108.5 60.44 108.5 60.44 74.99"/><path class="cls-5" d="M49.87,119.69a0.51,0.51,0,0,1-.36-0.15L39,109H15.8a0.51,0.51,0,0,1-.51-0.51V75a0.51,0.51,0,0,1,.51-0.51H60.44A0.51,0.51,0,0,1,61,75v33.51a0.51,0.51,0,0,1-.51.51H50.38v10.16A0.51,0.51,0,0,1,49.87,119.69ZM16.31,108H39.2a0.51,0.51,0,0,1,.36.15l9.79,9.8v-9.44a0.51,0.51,0,0,1,.51-0.51H59.93V75.5H16.31V108Z"/><path class="cls-5" d="M50.18,88.35H26.05a0.51,0.51,0,0,1,0-1H50.18A0.51,0.51,0,1,1,50.18,88.35Z"/><rect class="cls-4" x="26.05" y="85.39" width="24.13" height="3.8"/><path class="cls-5" d="M50.18,89.7H26.05a0.51,0.51,0,0,1-.51-0.51v-3.8a0.51,0.51,0,0,1,.51-0.51H50.18a0.51,0.51,0,0,1,.51.51v3.8A0.51,0.51,0,0,1,50.18,89.7Zm-23.62-1H49.67V85.9H26.56v2.78Z"/><path class="cls-5" d="M50.18,96.25H26.05a0.51,0.51,0,0,1,0-1H50.18A0.51,0.51,0,1,1,50.18,96.25Z"/><rect class="cls-4" x="26.05" y="94.39" width="24.13" height="3.8"/><path class="cls-5" d="M50.18,98.7H26.05a0.51,0.51,0,0,1-.51-0.51v-3.8a0.51,0.51,0,0,1,.51-0.51H50.18a0.51,0.51,0,0,1,.51.51v3.8A0.51,0.51,0,0,1,50.18,98.7Zm-23.62-1H49.67V94.9H26.56v2.78Z"/></g><g id="plus-3" data-name="plus"><polygon class="cls-5" points="64.85 137.33 61.27 137.33 61.27 133.75 60.08 133.75 60.08 137.33 56.49 137.33 56.49 138.53 60.08 138.52 60.08 142.11 61.27 142.11 61.27 138.52 64.85 138.52 64.85 137.33"/></g><g id="plus-4" data-name="plus"><polygon class="cls-9" points="126.41 173.98 121.28 173.98 121.28 168.85 119.58 168.85 119.58 173.98 114.44 173.98 114.44 175.68 119.58 175.68 119.58 180.82 121.28 180.82 121.28 175.68 126.41 175.68 126.41 173.98"/></g><g id="line-4" data-name="line"><path class="cls-5" d="M209,213H16a0.5,0.5,0,0,1,0-1H209A0.5,0.5,0,0,1,209,213Z"/></g><g id="line-5" data-name="line"><path class="cls-5" d="M320.73,213h-105a0.5,0.5,0,0,1,0-1h105A0.5,0.5,0,0,1,320.73,213Z"/></g></svg>